<?xml version="1.0" encoding="utf-8"?>
<!-- Generator: Adobe Illustrator 28.1.0, SVG Export Plug-In . SVG Version: 6.00 Build 0)  -->
<svg version="1.1" id="Camada_1" xmlns="http://www.w3.org/2000/svg" xmlns:xlink="http://www.w3.org/1999/xlink" x="0px" y="0px"
	 viewBox="0 0 724.44 727.67" style="enable-background:new 0 0 724.44 727.67;" xml:space="preserve">
<style type="text/css">
	.st0{fill:#CEA44E;}
	.st1{fill:#6B4B2D;}
	.st2{display:none;}
	.st3{display:inline;fill:#6B4B2D;}
</style>
<g>
	<path class="st0" d="M437.11,217.68c0,22.49,0,44.81,0,67.53c22.71,0,44.9,0,67.28,0c0.25,1.27,0.58,2.18,0.58,3.09
		c-0.05,29.76,0.62,59.55-0.37,89.29c-2.31,68.82-53.13,128.43-120.53,142.5c-79.24,16.54-156.17-28.7-179.92-105.81
		c-5.21-16.92-8-45.37-5.88-60.92c11.23,0,22.16,0,33.77,0c0,5.29,0.04,10.46-0.01,15.62c-0.21,23.68,6.19,45.45,18.79,65.47
		c25.44,40.44,75.03,61.89,122.59,52.95c48.28-9.08,86.79-47.1,95.13-94.61c1.71-9.74,1.9-19.81,2.14-29.74
		c0.34-14.21,0.09-28.43,0.09-43.05c-11.13,0-22,0-33.62,0c0,1.55,0,3.27,0,5c0,14.56,0.01,29.11,0,43.67"/>
</g>
<g>
	<path class="st1" d="M437.14,320.01c0,1.55,0,3.27,0,5c0,14.56,0.01,29.11,0,43.67c-0.05,44.88-30.33,79.71-74.77,86.03
		c-50.61,7.2-96.4-32.62-96.36-83.8c0-5.7,0-11.39,0-17.38c34.39,0,68.32,0,102.56,0c0,6.97,0.57,13.84-0.15,20.57
		c-0.87,8.08-8.31,13.3-17.92,13.37c-13.74,0.11-27.48,0.03-41.22,0.03c-1.78,0-3.56,0-5.93,0c3,9.69,8.48,17.1,16.02,22.72
		c17.1,12.75,35.93,14.83,54.98,5.64c18.88-9.11,28.34-25.19,28.46-46.17c0.22-37.62,0.06-75.23,0.06-112.85c0-1.62,0-3.24,0-5.38
		c-45.52,0-90.74,0-136.41,0c0-11.49,0-22.45,0-33.76c56.81,0,113.46,0,170.65,0C437.11,240.17,437.14,297.28,437.14,320.01"/>
	<path class="st0" d="M368.57,285.27c0,11.7,0,22.72,0,34.04c-56.98,0-113.64,0-170.55,0c0-56.61,0-112.97,0-169.68
		c102.16,0,204.27,0,306.68,0c0,33.75,0,67.35,0,101.27c-11.16,0-22.19,0-33.8,0c0-22.35,0-44.66,0-67.25c-79.8,0-159.04,0-238.57,0
		c0,33.71,0,67.33,0,101.62C277.64,285.27,322.99,285.27,368.57,285.27z"/>
</g>
<g>
	<g class="st2">
		<path class="st3" d="M222.73,597.78l5.76-6.21c2.53,3.16,5.53,4.87,8.46,4.87c4.51,0,6.82-1.97,6.82-8.04v-20.04h-17.3v-8.41
			h27.35v29.26c0,8.69-4.28,15.88-16.54,15.88C232.37,605.1,226.59,603.18,222.73,597.78z"/>
		<path class="st3" d="M262.94,598.7l5.75-6.89c3.35,2.74,7.48,4.62,11.78,4.62c4.25,0,6.22-1.65,6.22-3.81
			c0-3.19-2.63-3.96-6.83-5.72l-5.77-2.46c-4.91-1.87-9.39-5.63-9.39-12.08c0-7.34,6.61-13.2,16.24-13.2c5.33,0,10.72,2,14.72,5.8
			l-5.05,6.32c-3.12-2.24-5.88-3.46-10.21-3.46c-3.3,0-5.54,1.37-5.54,3.96c0,2.67,2.97,3.64,7.22,5.23l5.42,2.3
			c5.8,2.18,9.47,5.79,9.47,12.05c0,7.37-6.18,13.74-17.15,13.74C273.82,605.1,267.64,602.91,262.94,598.7z"/>
		<path class="st3" d="M325.05,587.22v-27.25h10.05v28.27c0,5.3,1.95,8.19,6.13,8.19c4.19,0,6.26-2.89,6.26-8.19v-28.27h9.68v27.25
			c0,11.51-5.18,17.87-15.94,17.87C330.44,605.1,325.05,598.73,325.05,587.22z"/>
		<path class="st3" d="M366,559.97h10.28l9.32,22.03l3.79,9.74h0.23c-0.45-4.67-1.39-10.87-1.39-16.11v-15.66h9.56v44.31h-10.28
			l-9.32-22.08l-3.79-9.69h-0.23c0.45,4.9,1.39,10.84,1.39,16.05v15.72H366V559.97z"/>
		<path class="st3" d="M416.7,559.97h12.02l13.8,44.31h-10.63l-5.72-22.43c-1.12-4.42-2.47-9.61-3.54-14.29h-0.27
			c-1.08,4.68-2.32,9.87-3.44,14.29l-5.76,22.43H402.9L416.7,559.97z M412.03,585.93h21.2v7.81h-21.2V585.93z"/>
		<path class="st3" d="M448.14,595.87h10.35v-27.49h-10.35v-8.41h30.72v8.41h-10.35v27.49h10.35v8.41h-30.72V595.87z M456.56,553
			l11.62-9.51l5.3,6.46l-12.49,8.06L456.56,553z"/>
	</g>
</g>
</svg>
